<svg width="40" height="40" viewBox="0 0 40 40" fill="none" xmlns="http://www.w3.org/2000/svg">
<path d="M20 1.25C30.3553 1.25 38.75 9.64466 38.75 20C38.75 27.1137 34.7884 33.3022 28.951 36.4795M36.3167 37.4699H28.951V36.4795M28.951 36.4795V30.1042M20 38.75C9.64466 38.75 1.25 30.3553 1.25 20C1.25 12.8863 5.2116 6.6978 11.049 3.52046M3.68326 2.53014L11.049 2.53014V3.52046M11.049 3.52046L11.049 9.89583M16.0366 24.6875C16.5268 26.053 17.8497 27.0312 19.4048 27.0312H20M23.9634 15.3125C23.4732 13.947 22.1503 12.9687 20.5952 12.9687H20M20 12.9687H19.4048C17.4323 12.9687 15.8333 14.5427 15.8333 16.4844C15.8333 18.426 17.4323 20 19.4048 20H20.5952C22.5677 20 24.1667 21.574 24.1667 23.5156C24.1667 25.4573 22.5677 27.0312 20.5952 27.0312H20M20 12.9687V10.625M20 27.0312V29.375" stroke="#503217" stroke-width="2.5" stroke-linecap="round" stroke-linejoin="round"/>
</svg>
