<svg width="40" height="36" viewBox="0 0 40 36" fill="none" xmlns="http://www.w3.org/2000/svg">
<path d="M1.29167 11.7497H38.7083M23.125 17.9997H27.2917M8.45 34.6663H31.55C34.5498 34.6663 36.0497 34.6663 37.1011 33.9024C37.4407 33.6557 37.7393 33.3571 37.9861 33.0175C38.75 31.966 38.75 30.4661 38.75 27.4663V8.53301C38.75 5.53322 38.75 4.03333 37.9861 2.98187C37.7393 2.64229 37.4407 2.34366 37.1011 2.09694C36.0497 1.33301 34.5498 1.33301 31.55 1.33301H8.45C5.45021 1.33301 3.95032 1.33301 2.89886 2.09694C2.55928 2.34366 2.26065 2.64229 2.01393 2.98187C1.25 4.03333 1.25 5.53322 1.25 8.53301V27.4663C1.25 30.4661 1.25 31.966 2.01393 33.0175C2.26065 33.3571 2.55928 33.6557 2.89886 33.9024C3.95032 34.6663 5.45021 34.6663 8.45 34.6663Z" stroke="#503217" stroke-width="2.5" stroke-linecap="round" stroke-linejoin="round"/>
</svg>
